<svg class="___1okpztj f1w7gpdv fez10in fg4l7m0 f16hsg94 fwpfdsa f88nxoq f1e2fz10" fill="currentColor" aria-hidden="true" width="1em" height="1em" viewBox="0 0 20 20" xmlns="http://www.w3.org/2000/svg" data-darkreader-inline-fill="" style="--darkreader-inline-fill: currentColor;"><path d="M14 6a4 4 0 0 1 .2 8H12a.75.75 0 0 1-.1-1.5H14a2.5 2.5 0 0 0 .16-5H12a.75.75 0 0 1-.1-1.5H14ZM8 6a.75.75 0 0 1 .1 1.5H6a2.5 2.5 0 0 0-.16 5H8a.75.75 0 0 1 .1 1.5H6a4 4 0 0 1-.2-8H8ZM6.25 9.25h7.5a.75.75 0 0 1 .1 1.5h-7.6a.75.75 0 0 1-.1-1.5h7.6-7.5Z" fill="currentColor" data-darkreader-inline-fill="" style="--darkreader-inline-fill: currentColor;"></path></svg>