<svg class="___1okpztj f1w7gpdv fez10in fg4l7m0 f16hsg94 fwpfdsa f88nxoq f1e2fz10" fill="currentColor" aria-hidden="true" width="1em" height="1em" viewBox="0 0 20 20" xmlns="http://www.w3.org/2000/svg" data-darkreader-inline-fill="" style="--darkreader-inline-fill: currentColor;"><path d="M2 4.25c0-.41.34-.75.75-.75h10.5a.75.75 0 0 1 0 1.5H2.75A.75.75 0 0 1 2 4.25Zm0 5c0-.41.34-.75.75-.75h14.5a.75.75 0 0 1 0 1.5H2.75A.75.75 0 0 1 2 9.25Zm.75 4.25a.75.75 0 0 0 0 1.5h8.5a.75.75 0 0 0 0-1.5h-8.5Z" fill="currentColor" data-darkreader-inline-fill="" style="--darkreader-inline-fill: currentColor;"></path></svg>