<svg viewBox="0 0 24 24" fill="none" xmlns="http://www.w3.org/2000/svg" xmlns:xlink="http://www.w3.org/1999/xlink">
	<desc>
			Created with Pixso.
	</desc>
	<defs/>
	<path id="矢量 15" d="M7.51 1.5C7.81 0.63 8.65 0 9.63 0L14.13 0C15.11 0 15.93 0.63 16.25 1.5L18.63 1.5C19.88 1.5 20.89 2.5 20.89 3.75L20.89 12L20.89 16.5L17.13 16.5C16.72 15.67 18.05 17.88 17.13 17.12C16.21 17.12 17.13 17.12 17.13 17.12L11.71 19.84C10.5 19.84 11.71 19.84 11.71 19.84C11.19 19.8 11.7 19.69 11.71 19.84C11.73 19.98 11.58 19.28 11.71 19.84L2.88 16.5L2.88 12L2.88 3.75C2.88 2.5 3.88 1.5 5.13 1.5L7.51 1.5ZM9.63 1.5C9.13 1.5 8.88 1.74 8.88 2.25C8.88 2.75 9.13 3 9.63 3L14.13 3C14.63 3 14.88 2.75 14.88 2.25C14.88 1.74 14.63 1.5 14.13 1.5L9.63 1.5ZM17.13 16.5L20.89 16.5L20.89 21.75C20.89 22.99 19.88 24 18.63 24L5.13 24C4.5 24 3.97 23.78 3.53 23.34C3.09 22.9 2.88 22.37 2.88 21.75L2.88 16.5L7.51 18.25L7.51 18.25L11.71 19.84C12.01 20.8 10.71 19.75 11.71 19.84C11.71 19.84 11.26 20.74 11.71 19.84L17.13 17.12C17.52 17.42 16.62 16.5 17.13 16.5Z" fill="#FFFFFF" fill-opacity="1.000000" fill-rule="nonzero"/>
	<path id="path" d="M10.47 6.64C10.37 6.28 10.14 6.1 9.79 6.08C9.44 6.06 9.2 6.22 9.06 6.56L6.27 13.18L0.75 13.18C0.25 13.18 0 13.44 0 13.97C0 14.49 0.25 14.75 0.75 14.75L6.75 14.75C7.08 14.76 7.31 14.6 7.44 14.28L9.6 9.11L12.02 17.35C12.12 17.7 12.34 17.88 12.68 17.91C13.02 17.94 13.27 17.79 13.41 17.46L15.74 12.58L16.57 14.31C16.7 14.61 16.93 14.75 17.24 14.75L23.24 14.75C23.74 14.75 24 14.49 24 13.97C24 13.44 23.74 13.18 23.24 13.18L17.69 13.18L16.42 10.47C16.28 10.17 16.05 10.02 15.74 10.02C15.43 10.02 15.2 10.17 15.06 10.47L12.9 15.01L10.47 6.64Z" fill="#121212" fill-opacity="1.000000" fill-rule="nonzero"/>
	<path id="path" d="M9.82 9.85L9.6 9.11L8.82 10.97L7.47 14.22L7.44 14.28C7.31 14.6 7.08 14.76 6.75 14.75L0.75 14.75Q0.39 14.75 0.2 14.58Q0 14.38 0 13.97Q0 13.55 0.2 13.36Q0.39 13.18 0.75 13.18L6.27 13.18L6.8 11.92L7.45 10.38L7.76 9.65L9.06 6.56C9.2 6.22 9.44 6.06 9.79 6.08Q10.04 6.09 10.2 6.21Q10.39 6.35 10.47 6.64L10.81 7.82L11.41 9.87L11.44 9.98L11.63 10.63L12.1 12.23L12.3 12.94L12.46 13.48L12.63 14.06L12.71 14.33L12.76 14.52L12.9 15.01L12.96 14.88L13.27 14.23L13.57 13.61L13.83 13.06L15.06 10.47C15.09 10.41 15.12 10.35 15.16 10.3C15.3 10.12 15.49 10.02 15.74 10.02C16.05 10.02 16.28 10.17 16.42 10.47L17.4 12.55L17.69 13.18L23.24 13.18Q23.6 13.18 23.79 13.36Q24 13.55 24 13.97C24 14.49 23.74 14.75 23.24 14.75L17.24 14.75C17.23 14.75 17.22 14.75 17.21 14.75C16.91 14.75 16.7 14.6 16.57 14.31L16.41 13.99L15.97 13.06L15.74 12.58L15.2 13.71L14.85 14.44L14.65 14.88L13.8 16.65L13.41 17.46C13.32 17.68 13.18 17.82 12.99 17.88C12.9 17.91 12.79 17.92 12.68 17.91C12.34 17.88 12.12 17.7 12.02 17.35L11.82 16.7L11.28 14.85L11.25 14.72L11.16 14.44L11.07 14.14L10.85 13.37L10.46 12.04L10.17 11.05L9.82 9.85Z" fill="#121212" fill-opacity="1.000000" fill-rule="evenodd"/>
</svg>
