<svg viewBox="0 0 256 256" fill="none" xmlns="http://www.w3.org/2000/svg" xmlns:xlink="http://www.w3.org/1999/xlink">
	<desc>
			Created with Pixso.
	</desc>
	<defs/>
	<path id="矢量 14" d="M80.19 16C83.39 6.72 92.35 0 102.76 0L150.79 0C161.2 0 170 6.72 173.36 16L198.82 16C212.11 16 222.84 26.72 222.84 40L222.84 128L222.84 176L182.81 176C178.38 167.19 192.62 190.77 182.81 182.61C172.94 182.61 182.81 182.61 182.81 182.61L124.99 211.62C112.04 211.62 124.99 211.62 124.99 211.62C119.38 211.28 124.84 210.12 124.99 211.62C125.14 213.12 123.61 205.65 124.99 211.62L30.72 176L30.72 128L30.72 40C30.72 26.72 41.44 16 54.73 16L80.19 16ZM102.76 16C97.42 16 94.76 18.66 94.76 24C94.76 29.33 97.42 32 102.76 32L150.79 32C156.13 32 158.8 29.33 158.8 24C158.8 18.66 156.13 16 150.79 16L102.76 16ZM182.81 176L222.84 176L222.84 232C222.84 245.28 212.11 256 198.82 256L54.73 256C48.1 256 42.44 253.65 37.75 248.97C33.06 244.28 30.72 238.62 30.72 232L30.72 176L80.19 194.69L80.19 194.69L124.99 211.62C128.2 221.9 114.25 210.73 124.99 211.62C124.99 211.62 120.12 221.23 124.99 211.62L182.81 182.61C186.97 185.81 177.37 176 182.81 176Z" fill="#C73520" fill-opacity="1.000000" fill-rule="nonzero"/>
	<path id="path" d="M111.75 70.85C110.67 67.07 108.25 65.07 104.5 64.87C100.75 64.66 98.15 66.37 96.7 70.01L66.92 140.61L8 140.61C2.66 140.61 0 143.42 0 149.02C0 154.62 2.66 157.42 8 157.42L72.04 157.42C75.55 157.44 78 155.76 79.4 152.38L102.46 97.24L128.24 185.16C129.3 188.84 131.65 190.82 135.3 191.11C138.94 191.4 141.55 189.81 143.12 186.34L167.94 134.23L176.75 152.72C178.21 155.86 180.62 157.43 183.95 157.42L247.99 157.42C253.33 157.42 256 154.62 256 149.02C256 143.42 253.33 140.61 247.99 140.61L188.75 140.61L175.14 111.7C173.69 108.54 171.29 106.96 167.94 106.96C164.6 106.96 162.19 108.54 160.74 111.7L137.68 160.11L111.75 70.85Z" fill="#121212" fill-opacity="1.000000" fill-rule="nonzero"/>
	<path id="path" d="M135.58 152.89L111.75 70.85C110.67 67.07 108.25 65.07 104.5 64.87C100.75 64.66 98.15 66.37 96.7 70.01L66.92 140.61L8 140.61Q4.19 140.61 2.2 142.51Q0 144.61 0 149.02Q0 153.43 2.2 155.52Q4.19 157.42 8 157.42L72.04 157.42C75.55 157.44 78 155.76 79.4 152.38L99.4 104.57L102.46 97.24L104.69 104.86L128.24 185.16C129.3 188.84 131.65 190.82 135.3 191.11C138.94 191.4 141.55 189.81 143.12 186.34L165.17 140.04L167.94 134.23L170.71 140.04L176.75 152.72C178.21 155.86 180.62 157.43 183.95 157.42L247.99 157.42Q251.8 157.42 253.79 155.52Q256 153.43 256 149.02Q256 144.61 253.79 142.51Q251.8 140.61 247.99 140.61L188.75 140.61L175.14 111.7C173.69 108.54 171.29 106.96 167.94 106.96C164.6 106.96 162.19 108.54 160.74 111.7L140.92 153.32L137.68 160.11L135.58 152.89ZM102.72 70.15Q103.37 69.81 104.22 69.86Q105.07 69.9 105.67 70.31Q106.56 70.89 106.94 72.24L136.55 174.13L165.28 113.79Q165.78 112.71 166.62 112.26Q167.2 111.96 167.94 111.96Q168.66 111.96 169.22 112.25Q170.1 112.69 170.62 113.83L185.58 145.61L247.99 145.61Q249.85 145.61 250.37 146.16Q251 146.82 251 149.02Q251 151.22 250.37 151.88Q249.85 152.42 247.99 152.42L183.94 152.42Q183.23 152.43 182.66 152.14Q181.79 151.7 181.26 150.57L167.94 122.6L138.57 184.28Q138.04 185.44 137.16 185.87Q136.52 186.19 135.69 186.12Q134.88 186.06 134.28 185.66Q133.41 185.07 133.03 183.76L103.29 82.3L74.79 150.46Q74.31 151.61 73.46 152.08Q72.85 152.43 72.04 152.42L8 152.42Q6.14 152.42 5.62 151.88Q5 151.22 5 149.02Q5 146.82 5.62 146.16Q6.14 145.61 8 145.61L70.23 145.61L101.34 71.86Q101.83 70.63 102.72 70.15Z" fill="#121212" fill-opacity="1.000000" fill-rule="evenodd"/>
</svg>
